<svg width="86" height="85" viewBox="0 0 86 85" fill="none" xmlns="http://www.w3.org/2000/svg">
<circle opacity="0.25" cx="42.5" cy="42.5" r="42.5" fill="#0F05C1"/>
<path d="M45.8488 45.6984L38.1757 43.3715L37.341 41.7021C37.0809 41.1817 36.486 40.9409 35.9479 41.1076V40.8171C39.1254 38.5217 41.2818 34.8961 41.5876 30.7622C43.0766 30.3461 44.2484 29.1353 44.4937 27.6259C44.6485 26.6739 44.4463 25.7365 43.9835 24.9575C45.4648 24.182 46.4785 22.6305 46.4785 20.8459C46.4785 19.2275 45.6209 17.7528 44.2873 16.922C44.3609 16.6195 44.3985 16.3078 44.3985 15.9925C44.3985 13.817 42.6287 12.0472 40.4532 12.0472C39.9313 12.0472 39.4332 12.15 38.977 12.3348C36.7187 10.2833 33.8271 9.15985 30.7462 9.15985H25.1993C22.132 9.15985 19.2284 10.2852 16.9683 12.3347C16.512 12.1498 16.014 12.0472 15.4923 12.0472C13.3169 12.0472 11.547 13.817 11.547 15.9925C11.547 16.308 11.5847 16.6197 11.6583 16.922C10.3245 17.7528 9.46702 19.2275 9.46702 20.8459C9.46702 22.6295 10.4795 24.1801 11.9592 24.9561C11.4975 25.7325 11.2964 26.6695 11.4519 27.6259C11.6972 29.1353 12.8689 30.3461 14.358 30.7622C14.6631 34.8904 16.8142 38.5115 19.9845 40.8074V41.1032C19.4498 40.9445 18.8625 41.1859 18.6044 41.702L17.7703 43.3699L9.79999 45.761C7.52703 46.4431 6 48.4956 6 50.8685V79.6677C6 80.3149 6.52469 80.8396 7.17187 80.8396C7.81906 80.8396 8.34375 80.3149 8.34375 79.6677V50.8685C8.34375 50.7826 8.34765 50.6976 8.35468 50.6132L13.0389 55.2974C13.8653 56.1238 14.3203 57.2224 14.3203 58.391V79.6675C14.3203 80.3147 14.845 80.8394 15.4922 80.8394C16.1394 80.8394 16.664 80.3147 16.664 79.6675V58.391C16.664 56.5963 15.9651 54.9091 14.6961 53.6401L9.53546 48.4795C9.81171 48.2732 10.1262 48.1102 10.4734 48.0062L15.7533 46.4223C16.1667 47.5843 19.237 55.5649 27.3226 60.9552C27.5195 61.0865 27.7461 61.1521 27.9726 61.1521C28.1992 61.1521 28.4257 61.0865 28.6226 60.9552C36.979 55.3843 39.9599 47.1492 40.2052 46.4362L45.1688 47.9413C45.2823 47.9757 45.3966 47.9921 45.5093 47.9921C46.012 47.9921 46.4768 47.666 46.6302 47.1599C46.818 46.5406 46.4682 45.8863 45.8488 45.6984ZM36.2962 44.8534L32.336 49.8037C32.2817 49.8717 32.2164 49.8856 32.1648 49.8843C32.1168 49.8835 32.0485 49.8681 31.9964 49.7984L29.7528 46.8068L35.7688 43.7987L36.2962 44.8534ZM27.9726 45.0764L22.3281 42.2542V42.1756C24.0493 42.9603 25.9607 43.3982 27.9726 43.3982C29.9795 43.3982 31.8862 42.9621 33.6042 42.181V42.2606L27.9726 45.0764ZM40.4531 14.3911C41.3362 14.3911 42.0546 15.1095 42.0546 15.9927C42.0546 16.3055 41.9624 16.61 41.7882 16.8733C41.5812 17.1859 41.5363 17.5787 41.6676 17.93C41.7988 18.2812 42.0901 18.5484 42.4512 18.6491C43.4424 18.925 44.1348 19.8284 44.1348 20.8461C44.1348 22.1115 43.1052 23.1411 41.8398 23.1411C40.5743 23.1411 39.5448 22.1115 39.5448 20.8461C39.5448 20.279 39.7627 19.7298 40.1585 19.2998C40.4123 19.0242 40.5188 18.6439 40.4454 18.2766C40.372 17.9092 40.1273 17.5991 39.7873 17.4422C39.2188 17.1798 38.8515 16.6109 38.8515 15.9927C38.8515 15.1095 39.5699 14.3911 40.4531 14.3911ZM11.8105 20.8461C11.8106 19.8286 12.5028 18.9251 13.494 18.6492C13.8553 18.5486 14.1465 18.2814 14.2776 17.9301C14.4087 17.5789 14.3639 17.1861 14.157 16.8734C13.9828 16.6101 13.8906 16.3056 13.8906 15.9928C13.8906 15.1097 14.609 14.3912 15.4922 14.3912C16.3753 14.3912 17.0937 15.1095 17.0937 15.9927C17.0937 16.6109 16.7264 17.18 16.1579 17.4422C15.8178 17.5991 15.5731 17.9092 15.4998 18.2766C15.4264 18.6439 15.533 19.0242 15.7867 19.2998C16.1825 19.7298 16.4004 20.279 16.4004 20.8461C16.4004 22.1115 15.3709 23.1411 14.1055 23.1411C12.84 23.1411 11.8105 22.1115 11.8105 20.8461ZM16.664 29.7459C16.664 29.0987 16.1394 28.574 15.4922 28.574C14.6303 28.574 13.8876 28.0048 13.765 27.25C13.6251 26.39 14.1514 25.5989 14.9889 25.4101C15.0342 25.4 15.0778 25.3865 15.1206 25.3715C17.1915 24.9072 18.744 23.0551 18.744 20.8462C18.744 20.1295 18.5759 19.4297 18.259 18.7955C18.9984 18.0659 19.4375 17.0597 19.4375 15.9927C19.4375 15.2016 19.2025 14.4645 18.8 13.8462C20.5886 12.3322 22.8334 11.5038 25.1992 11.5038H30.746C33.1223 11.5038 35.3604 12.3281 37.1471 13.8434C36.7434 14.4623 36.5078 15.2003 36.5078 15.9927C36.5078 17.0597 36.9468 18.0659 37.6862 18.7955C37.3692 19.4297 37.2012 20.1295 37.2012 20.8462C37.2012 23.0997 38.8168 24.9822 40.9504 25.3984C40.9863 25.4131 41.0232 25.4264 41.0612 25.4376C41.7313 25.6378 42.3309 26.3245 42.1804 27.2501C42.0577 28.005 41.3151 28.5742 40.4532 28.5742C39.806 28.5742 39.2813 29.0989 39.2813 29.7461C39.2813 35.9817 34.2084 41.0546 27.9728 41.0546C21.7372 41.0546 16.664 35.9815 16.664 29.7459ZM19.8051 44.541L20.1764 43.7987L26.1926 46.8068L23.949 49.7984C23.8968 49.8681 23.8286 49.8835 23.7806 49.8843C23.7293 49.8884 23.6637 49.8717 23.6093 49.8037L19.6804 44.8926C19.7403 44.7832 19.7823 44.6646 19.8051 44.541ZM27.9726 58.5577C22.7264 54.8291 19.9028 49.9493 18.7028 47.4223L21.7792 51.2677C22.2687 51.8796 22.9945 52.2281 23.7759 52.2281C23.7897 52.2281 23.8034 52.2279 23.8172 52.2277C24.6142 52.2152 25.3456 51.8423 25.8239 51.2046L26.8006 49.9023V54.707C26.8006 55.3541 27.3253 55.8788 27.9725 55.8788C28.6196 55.8788 29.1443 55.3541 29.1443 54.707V49.9023L30.121 51.2046C30.5993 51.8424 31.3307 52.2152 32.1278 52.2277C32.1415 52.2279 32.1553 52.2281 32.169 52.2281C32.9504 52.2281 33.6762 51.8796 34.1657 51.2677L37.2515 47.4104C36.0612 49.9306 33.246 54.8118 27.9726 58.5577Z" fill="#0F05C1"/>
<path d="M31.4845 32.996C30.9818 32.5882 30.2438 32.6653 29.8362 33.1679C29.3378 33.7826 28.676 34.121 27.9729 34.121C27.2698 34.121 26.6081 33.7826 26.1096 33.1679C25.7021 32.6653 24.964 32.5884 24.4614 32.996C23.9587 33.4037 23.8818 34.1417 24.2895 34.6443C25.2278 35.8012 26.5704 36.4646 27.9731 36.4646C29.3757 36.4646 30.7179 35.801 31.6563 34.6443C32.064 34.1417 31.9871 33.4037 31.4845 32.996Z" fill="#0F05C1"/>
<path d="M22.4258 25.8006C21.7786 25.8006 21.2539 26.3253 21.2539 26.9725V28.3592C21.2539 29.0064 21.7786 29.5311 22.4258 29.5311C23.073 29.5311 23.5977 29.0064 23.5977 28.3592V26.9725C23.5977 26.3253 23.073 25.8006 22.4258 25.8006Z" fill="#0F05C1"/>
<path d="M33.5195 25.8006C32.8723 25.8006 32.3477 26.3253 32.3477 26.9725V28.3592C32.3477 29.0064 32.8723 29.5311 33.5195 29.5311C34.1667 29.5311 34.6914 29.0064 34.6914 28.3592V26.9725C34.6914 26.3253 34.1667 25.8006 33.5195 25.8006Z" fill="#0F05C1"/>
<path d="M45.4417 51.1048C44.9841 50.6471 44.2421 50.6471 43.7846 51.1048L41.2491 53.6402C39.98 54.9093 39.2811 56.5965 39.2811 58.3912V79.6677C39.2811 80.3149 39.8058 80.8396 40.453 80.8396C41.1002 80.8396 41.6249 80.3149 41.6249 79.6677V58.3912C41.6249 57.2226 42.08 56.1238 42.9063 55.2976L45.4417 52.7621C45.8994 52.3045 45.8994 51.5624 45.4417 51.1048Z" fill="#0F05C1"/>
<path d="M68.9258 42.7031C68.4231 42.2953 67.685 42.3723 67.2775 42.8749C66.779 43.4896 66.1173 43.8281 65.4142 43.8281C64.7111 43.8281 64.0494 43.4896 63.5509 42.8749C63.1434 42.3723 62.4053 42.2954 61.9027 42.7031C61.4 43.1107 61.3231 43.8487 61.7308 44.3514C62.6689 45.5081 64.0114 46.1717 65.4141 46.1717C66.8167 46.1717 68.1592 45.5081 69.0976 44.3514C69.5053 43.8487 69.4284 43.1107 68.9258 42.7031Z" fill="#0F05C1"/>
<path d="M52.9335 63.2419C52.2863 63.2419 51.7616 63.7666 51.7616 64.4138V79.6676C51.7616 80.3148 52.2863 80.8395 52.9335 80.8395C53.5807 80.8395 54.1053 80.3148 54.1053 79.6676V64.4138C54.1053 63.7666 53.5807 63.2419 52.9335 63.2419Z" fill="#0F05C1"/>
<path d="M77.8944 63.2419C77.2472 63.2419 76.7225 63.7666 76.7225 64.4138V79.6676C76.7225 80.3148 77.2472 80.8395 77.8944 80.8395C78.5416 80.8395 79.0663 80.3148 79.0663 79.6676V64.4138C79.0663 63.7666 78.5416 63.2419 77.8944 63.2419Z" fill="#0F05C1"/>
<path d="M82.0823 55.2336C82.8143 54.3052 83.2264 53.1479 83.2264 51.9333C83.2264 49.9585 82.1432 48.1912 80.4484 47.2718C80.4515 47.2077 80.4529 47.1438 80.4529 47.0799C80.4529 45.5566 79.7154 44.1623 78.5115 43.3041C78.5912 43.0338 78.6653 42.7616 78.7278 42.486C78.8797 41.8168 78.9765 41.1096 79.022 40.3346C80.8665 37.6131 81.8396 34.4381 81.8396 31.1326C81.8396 22.0754 74.4711 14.7068 65.4139 14.7068C56.3567 14.7068 48.9882 22.0754 48.9882 31.1326C48.9882 34.4384 49.9614 37.6134 51.806 40.3348C51.8514 41.1102 51.9483 41.8173 52.1 42.4859C52.1625 42.7613 52.2366 43.0335 52.3163 43.304C51.1124 44.1621 50.3749 45.5565 50.3749 47.0799C50.3749 47.1438 50.3764 47.2077 50.3794 47.2718C48.6844 48.1912 47.6014 49.9587 47.6014 51.9333C47.6014 53.1479 48.0136 54.3052 48.7455 55.2336C46.3305 56.6827 44.828 59.2857 44.828 62.1744V79.6683C44.828 80.3155 45.3527 80.8402 45.9999 80.8402C46.6471 80.8402 47.1717 80.3155 47.1717 79.6683V62.1744C47.1717 59.8047 48.5935 57.7049 50.7936 56.8247L51.0178 56.7351C54.4839 61.4194 59.8236 64.1989 65.4141 64.1989C71.0809 64.1989 76.3036 61.4835 79.8092 56.7347L80.0343 56.8247C82.2347 57.7049 83.6562 59.8047 83.6562 62.1744V79.6677C83.6562 80.3148 84.1809 80.8395 84.8281 80.8395C85.4753 80.8395 86 80.3148 86 79.6677V62.1744C85.9998 59.2857 84.4973 56.6827 82.0823 55.2336ZM51.3319 31.1326C51.3319 23.3678 57.6491 17.0506 65.4139 17.0506C73.1787 17.0506 79.4959 23.3678 79.4959 31.1326C79.4959 33.1077 79.0901 35.0279 78.3095 36.8001C76.6211 33.1668 72.8683 32.1487 69.2175 31.1609C66.2661 30.3623 63.2142 29.5364 60.5989 27.4442C60.3225 27.2231 59.9608 27.1385 59.6155 27.2146C59.2699 27.2906 58.977 27.5185 58.8188 27.8351C58.8066 27.8593 57.5789 30.2731 55.1827 31.4712C54.6038 31.7606 54.3691 32.4645 54.6586 33.0434C54.948 33.6223 55.6517 33.8571 56.2308 33.5674C58.1381 32.6137 59.4524 31.0993 60.1933 30.0509C62.923 31.8856 65.9223 32.6973 68.6053 33.4232C69.4859 33.6615 70.2964 33.8874 71.0372 34.1229C71.0115 34.1224 70.9862 34.121 70.9606 34.121C69.5325 34.121 68.2792 34.8837 67.5867 36.0232C66.9389 35.6898 66.1953 35.5077 65.4139 35.5077C64.6323 35.5077 63.8886 35.6898 63.2409 36.0232C62.5483 34.8838 61.295 34.121 59.867 34.121C57.6916 34.121 55.9217 35.8909 55.9217 38.0663C55.9217 40.2418 57.6916 42.0116 59.867 42.0116C61.8945 42.0116 63.5691 40.4741 63.7875 38.5038C64.1698 38.097 64.7677 37.8515 65.4139 37.8515C66.06 37.8515 66.6578 38.097 67.0401 38.5038C67.2586 40.4741 68.9331 42.0116 70.9606 42.0116C73.1361 42.0116 74.9059 40.2418 74.9059 38.0663C74.9059 36.9267 74.4197 35.8988 73.6444 35.1781C75.3203 36.0913 76.3511 37.3663 76.7331 39.6182C76.7134 39.6968 76.7009 39.7784 76.6978 39.8626C76.6698 40.644 76.5861 41.3324 76.442 41.9674C75.8842 44.4257 74.4901 46.6579 72.5169 48.253C70.4864 49.8943 68.0303 50.7618 65.4137 50.7618C62.7972 50.7618 60.3409 49.8943 58.3106 48.253C56.3374 46.658 54.9435 44.4257 54.3855 41.9674C54.2417 41.3337 54.158 40.6459 54.1299 39.8646C54.1186 39.5543 53.9875 39.2757 53.7819 39.0729C52.1783 36.729 51.3319 33.9881 51.3319 31.1326ZM72.5623 38.0662C72.5623 38.9493 71.8439 39.6677 70.9608 39.6677C70.0776 39.6677 69.3592 38.9493 69.3592 38.0662C69.3592 37.1831 70.0776 36.4646 70.9608 36.4646C71.8439 36.4646 72.5623 37.1831 72.5623 38.0662ZM61.4686 38.0662C61.4686 38.9493 60.7502 39.6677 59.867 39.6677C58.9839 39.6677 58.2655 38.9493 58.2655 38.0662C58.2655 37.1831 58.9839 36.4646 59.867 36.4646C60.7502 36.4646 61.4686 37.1831 61.4686 38.0662ZM72.1511 53.6677C70.3291 55.3591 67.9456 56.3082 65.4137 56.3082C62.8845 56.3082 60.4998 55.3583 58.6772 53.6674C59.4091 53.3471 60.0152 52.8213 60.4311 52.1596C62.0095 52.7779 63.7011 53.1052 65.4139 53.1052C67.1267 53.1052 68.8183 52.7779 70.3967 52.1596C70.8128 52.8216 71.4192 53.3474 72.1511 53.6677ZM51.006 54.2155C50.3371 53.6502 49.9453 52.819 49.9453 51.9332C49.9452 50.6374 50.7855 49.5001 52.0361 49.103C52.6349 48.913 52.9771 48.2848 52.8124 47.6787C52.7483 47.4435 52.7186 47.2532 52.7186 47.0799C52.7186 46.5365 52.9092 46.0271 53.2383 45.6255C54.1069 47.3332 55.3319 48.8587 56.8374 50.0755C57.3033 50.4521 57.793 50.7954 58.3017 51.1052C58.137 51.2949 57.9291 51.4463 57.6884 51.5426L51.006 54.2155ZM65.4139 61.8552C60.6905 61.8552 56.3255 59.6732 53.2777 55.8311L56.3183 54.6151C58.6444 57.1894 61.9191 58.6521 65.4141 58.6521C68.9123 58.6521 72.1836 57.1899 74.5095 54.6149L77.5512 55.8316C74.502 59.6724 70.1297 61.8552 65.4139 61.8552ZM79.8218 54.2157L73.1392 51.5426C72.8986 51.4463 72.6908 51.2949 72.5261 51.1052C73.0347 50.7952 73.5245 50.4521 73.9904 50.0755C75.4959 48.8587 76.7209 47.333 77.5895 45.6255C77.9186 46.0271 78.1092 46.5365 78.1092 47.0799C78.1092 47.2532 78.0795 47.4435 78.0154 47.6787C77.8506 48.2848 78.1929 48.913 78.7917 49.103C80.0423 49.5001 80.8826 50.6374 80.8826 51.9333C80.8826 52.8191 80.4907 53.6504 79.8218 54.2157Z" fill="#0F05C1"/>
</svg>
