<svg width="86" height="86" viewBox="0 0 86 86" fill="none" xmlns="http://www.w3.org/2000/svg">
<circle opacity="0.25" cx="42.5" cy="42.5" r="42.5" fill="#0F05C1"/>
<g clip-path="url(#clip0)">
<path d="M67.1213 56.4387L55.1547 53.176C55.0973 53.16 55.039 53.148 54.98 53.14C53.6572 52.9602 52.6698 51.8323 52.6667 50.4973V46.8627C56.7865 44.484 59.327 40.0905 59.3333 35.3333C62.2788 35.3333 64.6667 32.9455 64.6667 30C64.6623 28.7128 64.1882 27.4717 63.3333 26.5093V19.8667C63.3225 16.5915 61.6042 13.559 58.8 11.8667L56.6053 10.5493C56.2143 7.938 53.9737 6.0045 51.3333 6H34C33.2637 5.99983 32.6665 6.59683 32.6665 7.33317C32.6665 7.59667 32.7445 7.85417 32.8907 8.07333L34.7813 10.9093L33.2 11.8667C30.3958 13.559 28.6775 16.5915 28.6667 19.8667V26.5133C27.8127 27.4745 27.3387 28.7142 27.3333 30C27.3333 32.9455 29.7212 35.3333 32.6667 35.3333C32.673 40.0905 35.2135 44.484 39.3333 46.8627V50.4973C39.3302 51.8322 38.3428 52.9602 37.02 53.14C36.961 53.148 36.9027 53.16 36.8453 53.176L24.8787 56.4387C20.8213 57.5518 18.0067 61.2368 18 65.444V86H20.6667V74H27.3333V86H30V67.3333H27.3333V71.3333H20.6667V65.444C20.6722 62.4392 22.6825 59.8075 25.58 59.012L37.4467 55.7747L44.6667 69.0067V86H47.3333V69.0067L54.5507 55.7747L66.4173 59.012C69.316 59.8065 71.3275 62.4385 71.3333 65.444V71.3333H64.6667V67.3333H62V86H64.6667V74H71.3333V86H74V65.444C73.9933 61.2368 71.1787 57.5518 67.1213 56.4387ZM56.6667 32.6667H35.3333V26.216L37.628 19.3333H54.372L56.6667 26.216V32.6667ZM62 30C62 31.4728 60.8062 32.6667 59.3333 32.6667V27.3333C60.8062 27.3333 62 28.5272 62 30ZM32.6667 32.6667C31.1938 32.6667 30 31.4728 30 30C30 28.5272 31.1938 27.3333 32.6667 27.3333V32.6667ZM32.6667 24.6667C32.216 24.6723 31.7678 24.736 31.3333 24.856V19.8667C31.3392 17.525 32.5663 15.3562 34.5707 14.1453L37.3533 12.476C37.9845 12.0968 38.1888 11.2777 37.8097 10.6465C37.7988 10.6285 37.7877 10.6108 37.776 10.5933L36.4907 8.66667H51.3333C52.8062 8.66667 54 9.8605 54 11.3333C54.0002 11.8013 54.2455 12.235 54.6467 12.476L57.4293 14.1453C59.4337 15.3562 60.6608 17.525 60.6667 19.8667V24.86C60.2323 24.7385 59.7842 24.6737 59.3333 24.6667H58.96L56.5973 17.5787C56.416 17.0343 55.907 16.6672 55.3333 16.6667H36.6667C36.093 16.6672 35.584 17.0343 35.4027 17.5787L33.04 24.6667H32.6667ZM35.3333 35.3333H56.6667C56.6667 41.2243 51.891 46 46 46C40.109 46 35.3333 41.2243 35.3333 35.3333ZM46 65.8827L39.908 54.7133C41.2212 53.7083 41.994 52.151 42 50.4973V48.052C43.2942 48.4595 44.6432 48.6668 46 48.6667C47.3568 48.6668 48.7058 48.4595 50 48.052V50.4973C50.006 52.151 50.7788 53.7083 52.092 54.7133L46 65.8827Z" fill="#0F05C1"/>
<path d="M40.6667 31.3333C42.1394 31.3333 43.3333 30.1394 43.3333 28.6667C43.3333 27.1939 42.1394 26 40.6667 26C39.1939 26 38 27.1939 38 28.6667C38 30.1394 39.1939 31.3333 40.6667 31.3333Z" fill="#0F05C1"/>
<path d="M51.3333 31.3333C52.8061 31.3333 54 30.1394 54 28.6667C54 27.1939 52.8061 26 51.3333 26C49.8605 26 48.6666 27.1939 48.6666 28.6667C48.6666 30.1394 49.8605 31.3333 51.3333 31.3333Z" fill="#0F05C1"/>
<path d="M59.3333 74H50V76.6667H59.3333V74Z" fill="#0F05C1"/>
</g>
<defs>
<clipPath id="clip0">
<rect width="80" height="80" fill="white" transform="translate(6 6)"/>
</clipPath>
</defs>
</svg>
