<svg width="94" height="85" viewBox="0 0 94 85" fill="none" xmlns="http://www.w3.org/2000/svg">
<circle opacity="0.25" cx="42.5" cy="42.5" r="42.5" fill="#0F05C1"/>
<g clip-path="url(#clip0)">
<path d="M54.6748 59.521L52.3867 80.1174C52.2211 81.4853 50.978 82.4598 49.6102 82.2941C48.5198 82.1621 47.644 81.3324 47.4533 80.2507L44.6386 63.4011C44.0879 60.1029 40.9677 57.8753 37.6693 58.4262C35.1187 58.852 33.1202 60.8505 32.6944 63.4011L29.885 80.2507C29.6508 81.6078 28.3608 82.518 27.0039 82.2838C25.9156 82.0959 25.0804 81.2144 24.9515 80.1174L22.6582 59.521C22.6403 59.3645 22.5952 59.2125 22.5248 59.0717L20.5915 55.2049C18.4538 50.9169 17.3384 46.1921 17.3327 41.4007C17.3337 36.0251 21.6923 31.668 27.0679 31.6688C28.3838 31.669 29.6858 31.9362 30.8957 32.4538C32.0185 32.9349 33.1835 33.3107 34.3757 33.5765L34.9571 30.9738C33.9254 30.7433 32.9172 30.4183 31.945 30.0031C25.6489 27.3086 18.3606 30.2285 15.666 36.5246C15.0065 38.0656 14.6663 39.7245 14.666 41.4007C14.6725 46.6063 15.8845 51.7397 18.2074 56.3983L20.0341 60.0517L22.3008 80.4121C22.6177 83.2443 25.1705 85.2833 28.0026 84.9665C30.2945 84.71 32.1378 82.9641 32.5184 80.6894L35.3277 63.8318C35.6372 61.9856 37.3848 60.74 39.231 61.0495C40.6568 61.2887 41.774 62.4059 42.0132 63.8318L44.8226 80.6908C45.2929 83.5015 47.9528 85.3988 50.7635 84.9285C53.0381 84.5478 54.7839 82.7041 55.0401 80.4121L57.3255 59.8144L54.6748 59.521Z" fill="#0F05C1"/>
<path d="M24.5929 34.5579C21.7202 36.4683 19.9957 39.6908 19.9995 43.1407V45.0008H22.6662V43.1407C22.6634 40.5825 23.9426 38.193 26.073 36.7766L24.5929 34.5579Z" fill="#0F05C1"/>
<path d="M92.0007 26.3337H85.5832C85.2521 25.3272 84.8464 24.3467 84.3699 23.4003L88.9033 18.8669C89.4243 18.3466 89.4248 17.5022 88.9043 16.9812C88.904 16.9809 88.9036 16.9806 88.9033 16.9802L81.3618 9.42942C80.8322 8.92974 80.0048 8.92974 79.4751 9.42942L74.9417 13.9628C73.9929 13.4858 73.0097 13.0807 72.0003 12.7508V6.33336C72.0003 5.59701 71.4033 5 70.667 5H60.0001C59.2638 5 58.6667 5.59701 58.6667 6.33336V12.7508C57.6572 13.0817 56.674 13.4877 55.7254 13.9655L51.1919 9.43208C50.6716 8.91107 49.8272 8.91057 49.3062 9.43108C49.3059 9.43142 49.3056 9.43175 49.3052 9.43208L41.7624 16.9749C41.2414 17.4952 41.2409 18.3396 41.7614 18.8606C41.7618 18.8609 41.7621 18.8613 41.7624 18.8616L46.2958 23.395C45.8195 24.3432 45.4143 25.3254 45.0838 26.3337H38.6664C37.93 26.3337 37.333 26.9307 37.333 27.6671V38.334C37.333 39.0703 37.93 39.6673 38.6664 39.6673H45.0838C45.415 40.6738 45.8207 41.6544 46.2972 42.6007L41.7638 47.1341C41.2427 47.6545 41.2422 48.4988 41.7628 49.0198C41.7631 49.0202 41.7634 49.0205 41.7638 49.0208L49.3066 56.5636C49.8362 57.0633 50.6636 57.0633 51.1933 56.5636L55.7267 52.0302C56.6749 52.5099 57.6576 52.9177 58.6667 53.2502V59.6677C58.6667 60.404 59.2638 61.001 60.0001 61.001H70.667C71.4033 61.001 72.0003 60.404 72.0003 59.6677V53.2502C73.0098 52.9194 73.993 52.5134 74.9417 52.0355L79.4751 56.569C79.9955 57.09 80.8398 57.0905 81.3608 56.57C81.3612 56.5696 81.3615 56.5693 81.3618 56.569L88.9046 49.0262C89.4257 48.5058 89.4262 47.6615 88.9056 47.1405C88.9053 47.1401 88.905 47.1398 88.9046 47.1395L84.3712 42.606C84.8477 41.6597 85.2534 40.6792 85.5846 39.6726H92.0007C92.737 39.6726 93.3341 39.0756 93.3341 38.3393V27.6671C93.3341 26.9307 92.737 26.3337 92.0007 26.3337ZM90.6673 37.0006H84.5926C83.9931 37.0004 83.4672 37.4003 83.3072 37.978C82.9057 39.449 82.3235 40.8647 81.5738 42.1927C81.2783 42.7142 81.3673 43.3689 81.7912 43.7927L86.0833 48.0835L80.4245 53.7422L76.1337 49.4515C75.7096 49.028 75.0551 48.9397 74.5337 49.2355C73.2048 49.9843 71.7888 50.5665 70.3176 50.9689C69.7399 51.1289 69.3401 51.6547 69.3403 52.2542V58.3343H61.3335V52.2596C61.3336 51.66 60.9338 51.1342 60.3561 50.9742C58.8849 50.5719 57.4689 49.9897 56.14 49.2408C55.6187 48.945 54.9642 49.0333 54.54 49.4568L50.2493 53.7489L44.5905 48.0901L48.8826 43.8007C49.3064 43.3769 49.3954 42.7222 49.0999 42.2007C48.3502 40.8727 47.768 39.457 47.3665 37.986C47.2089 37.4028 46.6787 36.9984 46.0745 37.0006H39.9997V29.0005H46.0745C46.674 29.0006 47.1999 28.6008 47.3599 28.0231C47.7614 26.5521 48.3435 25.1364 49.0932 23.8084C49.3887 23.2868 49.2997 22.6322 48.8759 22.2083L44.5838 17.9176L50.2426 12.2588L54.5333 16.5509C54.9575 16.9744 55.612 17.0627 56.1334 16.7669C57.4622 16.018 58.8782 15.4359 60.3494 15.0335C60.9321 14.8754 61.3358 14.3453 61.3335 13.7415V7.66672H69.3336V13.7415C69.3334 14.341 69.7333 14.8669 70.311 15.0269C71.7822 15.4292 73.1982 16.0114 74.527 16.7602C75.0484 17.0561 75.7029 16.9677 76.1271 16.5442L80.4178 12.2521L86.0766 17.9109L81.7845 22.2017C81.3607 22.6255 81.2717 23.2802 81.5672 23.8017C82.3169 25.1297 82.899 26.5454 83.3005 28.0164C83.4605 28.5941 83.9864 28.9939 84.5859 28.9938H90.6673V37.0006Z" fill="#0F05C1"/>
<path d="M65.3336 19.667C57.9696 19.667 52 25.6366 52 33.0005C52 40.3645 57.9696 46.3341 65.3336 46.3341C72.6976 46.3341 78.6672 40.3645 78.6672 33.0005C78.659 25.6399 72.6941 19.6751 65.3336 19.667ZM65.3336 43.6674C59.4425 43.6674 54.6667 38.8917 54.6667 33.0005C54.6667 27.1094 59.4425 22.3337 65.3336 22.3337C71.2247 22.3337 76.0005 27.1094 76.0005 33.0005C75.9938 38.889 71.2219 43.6607 65.3336 43.6674Z" fill="#0F05C1"/>
</g>
<defs>
<clipPath id="clip0">
<rect width="80" height="80" fill="white" transform="translate(14 5)"/>
</clipPath>
</defs>
</svg>
