<svg width="85" height="85" viewBox="0 0 85 85" fill="none" xmlns="http://www.w3.org/2000/svg">
<circle opacity="0.25" cx="42.5" cy="42.5" r="42.5" fill="#0F05C1"/>
<path d="M66.3165 43.6994C66.0993 43.2549 66.0993 42.7451 66.3165 42.3006L68.3305 38.1805C69.4519 35.8865 68.5634 33.1523 66.3079 31.9555L62.2569 29.8061C61.8198 29.5743 61.5202 29.1617 61.4346 28.6745L60.6424 24.1575C60.2012 21.6425 57.8748 19.9525 55.347 20.3101L50.8064 20.9524C50.3162 21.0216 49.8316 20.864 49.4761 20.5201L46.1801 17.3316C44.3449 15.5562 41.4698 15.5561 39.6347 17.3316L36.3386 20.5204C35.983 20.8645 35.4984 21.0217 35.0084 20.9527L30.4677 20.3104C27.9391 19.9526 25.6135 21.6428 25.1724 24.1578L24.3801 28.6747C24.2946 29.1619 23.9949 29.5744 23.558 29.8063L19.507 31.9557C17.2514 33.1524 16.363 35.8868 17.4843 38.1809L19.4982 42.3008C19.7155 42.7454 19.7155 43.2552 19.4982 43.6997L17.4842 47.8196C16.3629 50.1137 17.2513 52.8479 19.5069 54.0447L23.5579 56.1941C23.9949 56.4259 24.2946 56.8385 24.3801 57.3256L25.1724 61.8427C25.574 64.1322 27.5372 65.7378 29.7934 65.7376C30.0156 65.7376 30.2411 65.722 30.4678 65.69L35.0085 65.0477C35.4982 64.9782 35.9831 65.136 36.3387 65.48L39.6347 68.6685C40.5525 69.5563 41.7297 70.0001 42.9074 70C44.0847 69.9999 45.2627 69.5561 46.18 68.6685L49.4761 65.48C49.8317 65.136 50.3165 64.9789 50.8064 65.0477L55.347 65.69C57.8759 66.0477 60.2012 64.3576 60.6424 61.8426L61.4347 57.3257C61.5203 56.8385 61.8199 56.426 62.2569 56.1941L66.3079 54.0447C68.5634 52.848 69.4519 50.1136 68.3305 47.8195L66.3165 43.6994ZM64.8481 51.2933L60.7971 53.4428C59.5055 54.1282 58.6197 55.3472 58.3671 56.7874L57.5748 61.3044C57.4256 62.1553 56.6389 62.7268 55.7833 62.6061L51.2426 61.9638C49.7945 61.7587 48.3616 62.2247 47.3106 63.2413L44.0146 66.4297C43.3938 67.0302 42.4211 67.0302 41.8001 66.4297L38.5041 63.2412C37.6158 62.382 36.4546 61.9163 35.2424 61.9163C35.0203 61.9163 34.7964 61.9319 34.5722 61.9637L30.0315 62.606C29.1765 62.7268 28.3892 62.1552 28.2399 61.3043L27.4475 56.7872C27.1948 55.347 26.3091 54.1279 25.0174 53.4426L20.9664 51.2932C20.2033 50.8883 19.9027 49.9633 20.282 49.1871L22.2961 45.067C22.9381 43.7533 22.9381 42.2466 22.2961 40.9329L20.282 36.8128C19.9027 36.0367 20.2033 35.1117 20.9664 34.7068L25.0174 32.5573C26.309 31.8719 27.1948 30.6529 27.4474 29.2126L28.2397 24.6957C28.389 23.8448 29.1756 23.2731 30.0313 23.394L34.5719 24.0363C36.0195 24.2412 37.4529 23.7754 38.5039 22.7588L41.8 19.5703C42.4207 18.9697 43.3935 18.9697 44.0145 19.5703L47.3104 22.7588C48.3614 23.7755 49.7946 24.2412 51.2424 24.0363L55.7831 23.394C56.6381 23.273 57.4254 23.8448 57.5746 24.6957L58.3669 29.2127C58.6196 30.653 59.5053 31.8721 60.797 32.5573L64.848 34.7068C65.6111 35.1117 65.9117 36.0367 65.5324 36.8128L63.5184 40.9328C62.8763 42.2464 62.8763 43.7533 63.5184 45.0669L65.5324 49.1869C65.9118 49.9633 65.6113 50.8884 64.8481 51.2933Z" fill="#0F05C1"/>
<path d="M54.2856 31.6216C53.6776 31.0135 52.6914 31.0135 52.0833 31.6216L31.5288 52.1762C30.9207 52.7843 30.9207 53.7703 31.5288 54.3785C31.8329 54.6825 32.2315 54.8346 32.6299 54.8346C33.0284 54.8346 33.4271 54.6826 33.731 54.3785L54.2855 33.824C54.8938 33.2158 54.8938 32.2299 54.2856 31.6216Z" fill="#0F05C1"/>
<path d="M36.6784 28.9849C33.53 28.9849 30.9685 31.5464 30.9685 34.6948C30.9685 37.8432 33.53 40.4047 36.6784 40.4047C39.8268 40.4047 42.3883 37.8432 42.3883 34.6948C42.3883 31.5464 39.8268 28.9849 36.6784 28.9849ZM36.6784 37.2902C35.2473 37.2902 34.0831 36.1259 34.0831 34.6947C34.0831 33.2636 35.2473 32.0994 36.6784 32.0994C38.1095 32.0994 39.2739 33.2636 39.2739 34.6947C39.2738 36.1259 38.1095 37.2902 36.6784 37.2902Z" fill="#0F05C1"/>
<path d="M49.1362 45.5955C45.9878 45.5955 43.4263 48.1569 43.4263 51.3054C43.4263 54.4538 45.9878 57.0153 49.1362 57.0153C52.2846 57.0153 54.8461 54.4538 54.8461 51.3054C54.8461 48.1569 52.2846 45.5955 49.1362 45.5955ZM49.1362 53.9007C47.7051 53.9007 46.5407 52.7365 46.5407 51.3054C46.5407 49.8743 47.705 48.71 49.1362 48.71C50.5673 48.71 51.7315 49.8743 51.7315 51.3054C51.7315 52.7365 50.5673 53.9007 49.1362 53.9007Z" fill="#0F05C1"/>
</svg>
