<svg width="85" height="85" viewBox="0 0 85 85" fill="none" xmlns="http://www.w3.org/2000/svg">
<circle opacity="0.25" cx="42.5" cy="42.5" r="42.5" fill="#0F05C1"/>
<path d="M25.0189 16.9149C25.1048 16.354 24.7742 15.8127 24.2358 15.6331L13.7489 12.1375C13.199 11.9537 12.5978 12.2018 12.3378 12.7201L11.1726 15.0505C10.8817 15.6245 11.1113 16.3257 11.6853 16.6166C11.6883 16.6182 11.6914 16.6196 11.6946 16.6212L17.904 19.7195L15.7309 31.677C15.7214 31.7255 15.7149 31.7746 15.7111 31.8238L13.3807 76.1021C13.3633 76.4321 13.487 76.754 13.7209 76.9876L18.3818 81.6485C18.8368 82.1034 19.5744 82.1034 20.0294 81.6485L24.6903 76.9876C24.9242 76.754 25.0478 76.4321 25.0305 76.1021L22.7001 31.9403L25.0189 16.9149ZM18.0415 32.0207L20.3522 19.2768C20.4454 18.7671 20.1908 18.2572 19.7276 18.0253L13.785 15.0517L13.9773 14.6672L22.5731 17.5324L20.386 31.7085C20.3734 31.7874 20.3692 31.8675 20.3731 31.9473L20.6761 37.7117H17.7362L18.0415 32.0207ZM17.6139 40.0421H20.7996L20.922 42.3725H17.4916L17.6139 40.0421ZM17.3622 44.703H21.0443L21.1666 47.0334H17.2457L17.3622 44.703ZM17.1175 49.3638H21.2902L21.4125 51.6943H17.001L17.1175 49.3638ZM16.8763 54.0247H21.5372L21.6595 56.3551H16.7598L16.8763 54.0247ZM16.6328 58.6856H21.783L21.9054 61.016H16.5104L16.6328 58.6856ZM19.2068 79.1771L15.7367 75.7059L16.3881 63.3464H22.0254L22.6768 75.7059L19.2068 79.1771Z" fill="#0F05C1"/>
<path d="M38.6742 17.5616C39.1292 17.1066 39.1292 16.3687 38.6742 15.9137C38.6353 15.8748 38.5936 15.8387 38.5495 15.8056L33.8886 12.3099L32.4903 14.1743L36.0769 16.8636L33.5309 19.4096C33.3124 19.6281 33.1895 19.9243 33.1895 20.2334V26.0595H32.0243C31.3808 26.0595 30.859 26.5812 30.859 27.2247V66.8421C30.859 67.4856 31.3808 68.0073 32.0243 68.0073H33.1895V71.8793L30.2764 73.0446C27.8985 73.9997 26.7452 76.7017 27.7006 79.0797C28.4064 80.8365 30.1088 81.9883 32.0021 81.9899H35.5199V79.6595H32.0021C30.7272 79.6608 29.6928 78.6284 29.6915 77.3535C29.6905 76.408 30.2662 75.5575 31.1445 75.2072L34.787 73.7507C35.2298 73.5739 35.5201 73.1449 35.5199 72.6682V68.0073H36.6851C37.3286 68.0073 37.8504 67.4856 37.8504 66.8421V27.2247C37.8504 26.5812 37.3286 26.0595 36.6851 26.0595H35.5199V20.7158L38.6742 17.5616ZM35.5199 65.6769H33.1895V63.3465H35.5199V65.6769ZM35.5199 61.016H33.1895V33.0508H35.5199V61.016ZM35.5199 30.7204H33.1895V28.3899H35.5199V30.7204Z" fill="#0F05C1"/>
<path d="M78.6329 40.0421H77.4677V29.6484C80.9412 27.41 82.012 22.1758 79.7981 17.6758C78.6651 15.2259 76.59 13.3378 74.0443 12.4405C72.2389 11.8303 70.2623 11.9888 68.5771 12.8786C64.7587 14.9433 63.5142 20.4362 65.8155 25.1273C66.9486 27.5772 69.0237 29.4653 71.5694 30.3627C72.303 30.6001 73.0691 30.722 73.8404 30.7239C74.2762 30.7179 74.7105 30.6704 75.1373 30.5817V40.0421H73.972C73.3286 40.0421 72.8068 40.5638 72.8068 41.2073V80.8247C72.8068 81.4682 73.3286 81.9899 73.972 81.9899H78.6329C79.2764 81.9899 79.7981 81.4682 79.7981 80.8247V41.2073C79.7981 40.5638 79.2764 40.0421 78.6329 40.0421ZM72.2755 28.1359C70.3337 27.4334 68.7577 25.9768 67.9048 24.0961C66.1511 20.5201 66.9528 16.4057 69.6899 14.9282C70.3286 14.5828 71.0437 14.4037 71.7698 14.4073C72.3027 14.41 72.8319 14.496 73.3382 14.6625C75.2796 15.365 76.8555 16.8211 77.7089 18.7012C79.4625 22.2772 78.6609 26.3916 75.9238 27.8691C74.7982 28.4631 73.4755 28.5598 72.2755 28.1359ZM77.4677 79.6595H75.1373V47.0334H77.4677V79.6595ZM77.4677 44.703H75.1373V42.3726H77.4677V44.703Z" fill="#0F05C1"/>
<path d="M69.2235 73.8513C68.7204 70.8518 66.3358 68.5215 63.3255 68.0877L57.6439 32.8655C57.5967 32.5673 57.4349 32.2993 57.1929 32.1186L56.1046 31.303L57.1929 30.4873C57.509 30.2515 57.6845 29.8718 57.659 29.4783L56.4938 12L54.1634 12.1538L55.2866 29.0017L54.1634 29.8465L53.0378 29.0017L54.1634 12.1538L51.8329 12L50.6677 29.4783C50.6424 29.8718 50.8178 30.2515 51.1338 30.4873L52.2221 31.303L51.1338 32.1186C50.8919 32.2993 50.7301 32.5674 50.6829 32.8655L45.0013 68.0877C41.1795 68.6383 38.5278 72.1829 39.0785 76.0045C39.6292 79.8261 43.1736 82.478 46.9953 81.9273C50.0056 81.4936 52.3902 79.1633 52.8933 76.1637H55.4335C56.072 79.9718 59.6767 82.5411 63.4848 81.9024C67.2929 81.2637 69.8621 77.6593 69.2235 73.8513ZM46.0069 79.6595C43.4328 79.6595 41.346 77.5728 41.346 74.9986C41.346 72.4245 43.4328 70.3378 46.0069 70.3378C48.581 70.3378 50.6677 72.4245 50.6677 74.9986C50.6677 77.5728 48.581 79.6595 46.0069 79.6595ZM55.4335 73.8334H52.8933C52.4055 70.9709 50.2019 68.7062 47.3539 68.1402L52.9084 33.701L54.1634 32.7595L55.4183 33.701L60.9729 68.1402C58.1248 68.7062 55.9213 70.9709 55.4335 73.8334ZM62.3199 79.6595C59.7458 79.6595 57.659 77.5728 57.659 74.9986C57.659 72.4245 59.7458 70.3378 62.3199 70.3378C64.894 70.3378 66.9808 72.4245 66.9808 74.9986C66.9808 77.5728 64.894 79.6595 62.3199 79.6595Z" fill="#0F05C1"/>
</svg>
