<svg width="91" height="87" viewBox="0 0 91 87" fill="none" xmlns="http://www.w3.org/2000/svg">
<circle opacity="0.25" cx="42.5" cy="42.5" r="42.5" fill="#0F05C1"/>
<g clip-path="url(#clip0)">
<path d="M84.3329 12.3332H72.3331C72.3331 9.38779 69.9454 7 66.9999 7C64.0545 7 61.6667 9.38779 61.6667 12.3332H49.6669C45.987 12.3376 43.0047 15.3198 43.0004 18.9998V28.2223H45.667V18.9998C45.667 16.7906 47.4578 14.9999 49.6669 14.9999H57.0761L56.0761 17.6665H49.6669C48.9306 17.6665 48.3336 18.2635 48.3336 18.9998V28.2223H51.0002V20.3331H55.0761L53.7508 23.8637C53.4917 24.5528 53.8402 25.3218 54.5295 25.581C54.68 25.6376 54.8393 25.6665 55.0001 25.6663H78.9997C79.736 25.667 80.3337 25.0707 80.3343 24.3343C80.3345 24.1737 80.3057 24.0142 80.249 23.8637L78.9237 20.3331H82.9996V60.3323H73.6665C72.9301 60.3323 72.3331 60.9293 72.3331 61.6656V70.9988H55.0001V73.6654H84.3329C85.0692 73.6654 85.6662 73.0684 85.6662 72.3321V18.9998C85.6662 18.2635 85.0692 17.6665 84.3329 17.6665H77.9237L76.9237 14.9999H84.3329C86.542 14.9999 88.3329 16.7906 88.3329 18.9998V72.3321C88.3329 74.5412 86.542 76.332 84.3329 76.332H55.0001V78.9986H84.3329C88.0129 78.9943 90.9951 76.012 90.9995 72.3321V18.9998C90.995 15.3198 88.0129 12.3376 84.3329 12.3332ZM74.9998 62.999H81.1143L74.9998 69.1135V62.999ZM82.9996 70.9988H76.8851L82.9996 64.8843V70.9988ZM77.0757 22.9997H56.9241L59.924 14.9999H63C63.7363 14.9999 64.3333 14.4029 64.3333 13.6665V12.3332C64.3333 10.8604 65.5271 9.66662 66.9999 9.66662C68.4727 9.66662 69.6665 10.8604 69.6665 12.3332V13.6665C69.6665 14.4029 70.2635 14.9999 70.9998 14.9999H74.0758L77.0757 22.9997Z" fill="#0F05C1"/>
<path d="M46.5935 31.0062C44.9187 31.007 43.2614 31.3474 41.7216 32.0062C37.4279 33.8368 32.5731 33.8368 28.2792 32.0062C21.9833 29.3117 14.6953 32.2315 12.0008 38.5274C11.3418 40.0672 11.0017 41.7245 11.0009 43.3993C11.0079 48.6047 12.22 53.7376 14.5421 58.3964L16.3674 62.0496L18.634 82.4359C18.9465 85.2514 21.4823 87.2805 24.2978 86.968C26.6097 86.7114 28.4595 84.9311 28.8045 82.6306L31.7258 63.1523C31.9946 61.3438 33.6788 60.0957 35.4872 60.3645C36.9287 60.5788 38.0607 61.7107 38.275 63.1523L41.1963 82.6306C41.6163 85.432 44.2279 87.3627 47.0293 86.9427C49.3298 86.5979 51.1101 84.7479 51.3668 82.4359L53.6334 62.0496L55.4587 58.3964C57.7808 53.7376 58.993 48.6047 59 43.3993C58.9963 36.5511 53.4417 31.0025 46.5935 31.0062ZM53.0734 57.2031L51.1401 61.0697C51.0703 61.2107 51.0251 61.3627 51.0068 61.519L48.7161 82.1413C48.5682 83.4926 47.3527 84.4679 46.0014 84.3197C44.8892 84.1979 43.9992 83.3413 43.8349 82.2346L40.9136 62.7563C40.4218 59.4905 37.3757 57.2417 34.1099 57.7336C31.515 58.1244 29.4778 60.1613 29.0872 62.7563L26.1659 82.2346C25.9662 83.5793 24.7144 84.5074 23.3698 84.3077C22.2631 84.1434 21.4065 83.2534 21.2847 82.1413L18.9927 61.519C18.9742 61.3627 18.9292 61.2107 18.8594 61.0697L16.9261 57.2031C14.789 52.915 13.6735 48.1904 13.6675 43.3993C13.6685 38.0239 18.0269 33.667 23.4023 33.6678C24.7181 33.668 26.0201 33.9352 27.2299 34.4528C32.194 36.5701 37.8069 36.5701 42.7709 34.4528C47.7128 32.338 53.4336 34.6298 55.5484 39.5717C56.066 40.7814 56.333 42.0835 56.3333 43.3993C56.3268 48.1906 55.211 52.9151 53.0734 57.2031Z" fill="#0F05C1"/>
<path d="M20.9272 36.5568C18.0546 38.4671 16.3302 41.6895 16.334 45.1393V46.9992H19.0006V45.1393C18.9978 42.5812 20.2769 40.1917 22.4072 38.7754L20.9272 36.5568Z" fill="#0F05C1"/>
<path d="M78.9996 38.9994H61.6666V41.666H78.9996V38.9994Z" fill="#0F05C1"/>
<path d="M78.9996 46.9993H61.6666V49.6659H78.9996V46.9993Z" fill="#0F05C1"/>
<path d="M78.9996 54.9991H61.6666V57.6657H78.9996V54.9991Z" fill="#0F05C1"/>
<path d="M78.9997 30.9995H57.6667V33.6662H78.9997V30.9995Z" fill="#0F05C1"/>
<path d="M69.6665 62.9989H61.6666V65.6656H69.6665V62.9989Z" fill="#0F05C1"/>
</g>
<defs>
<clipPath id="clip0">
<rect width="80" height="80" fill="white" transform="translate(11 7)"/>
</clipPath>
</defs>
</svg>
