<svg width="85" height="85" viewBox="0 0 85 85" fill="none" xmlns="http://www.w3.org/2000/svg">
<circle opacity="0.25" cx="42.5" cy="42.5" r="42.5" fill="#0F05C1"/>
<path d="M77.868 40.5171C77.7887 40.3614 77.6765 40.2244 77.5392 40.1156C77.4019 40.0067 77.2427 39.9285 77.0723 39.8862L75.6951 39.5444C74.4222 39.2225 73.0787 39.3185 71.8653 39.818C70.6518 40.3176 69.6335 41.1939 68.9624 42.3161L64.5188 49.6769C61.1121 47.2761 54.9951 43.8688 47.3966 43.5305V35.2801C48.6541 35.5281 49.9322 35.6579 51.2142 35.6676C54.0046 35.6676 56.3264 34.9583 58.1505 33.5425C62.0416 30.5232 62.0862 25.4639 62.0862 25.2501C62.0863 24.9688 61.9882 24.6962 61.8088 24.4787C61.6294 24.2612 61.3797 24.1121 61.1022 24.057C54.2042 22.6861 50.1729 25.3329 48.0054 27.7947C47.7885 28.0414 47.5857 28.2907 47.3966 28.5399V25.7451L55.4083 17.5826C56.5473 16.4067 57.1836 14.8378 57.1836 13.2055C57.1836 11.5731 56.5473 10.0043 55.4083 8.82827C54.8453 8.25002 54.171 7.7902 53.4256 7.47617C52.6802 7.16214 51.8789 7.00031 51.0693 7.00031C50.2597 7.00031 49.4584 7.16214 48.713 7.47617C47.9676 7.7902 47.2933 8.25002 46.7303 8.82827L46.1724 9.396L45.6148 8.82812C45.0519 8.24982 44.3776 7.78996 43.6322 7.4759C42.8867 7.16184 42.0854 7 41.2757 7C40.4661 7 39.6647 7.16184 38.9193 7.4759C38.1739 7.78996 37.4996 8.24982 36.9366 8.82812C35.7975 10.0041 35.1611 11.5731 35.1611 13.2055C35.1611 14.838 35.7975 16.4069 36.9366 17.5829L44.9483 25.7451V32.1901C44.7592 31.9407 44.5564 31.6914 44.3394 31.4449C42.172 28.9828 38.1403 26.3359 31.2427 27.7071C30.9652 27.7623 30.7155 27.9113 30.5361 28.1288C30.3567 28.3463 30.2587 28.6188 30.2586 28.9001C30.2586 29.1139 30.3033 34.1732 34.1944 37.1925C36.0187 38.6083 38.3399 39.3176 41.1307 39.3176C42.4126 39.3079 43.6908 39.1781 44.9483 38.9301V43.5305C36.0161 43.9301 29.1032 48.5886 26.2401 50.8627C21.6837 51.2303 18.8077 53.1601 17.1516 54.8061C16.1808 55.7674 15.3748 56.8801 14.7653 58.1H8.22414C7.89948 58.1 7.58811 58.2282 7.35854 58.4564C7.12897 58.6845 7 58.994 7 59.3167V73.9167C7 74.2393 7.12897 74.5488 7.35854 74.777C7.58811 75.0052 7.89948 75.1333 8.22414 75.1333H15.4677L44.7471 79.9836C44.8136 79.9945 44.8809 80 44.9483 80C45.148 80 45.3446 79.9514 45.521 79.8586L66.3314 68.9086C66.5848 68.7752 66.783 68.5577 66.8916 68.294L77.9088 41.5274C77.9753 41.3659 78.0061 41.1921 77.999 41.0178C77.992 40.8435 77.9473 40.6727 77.868 40.5171ZM59.5382 26.2611C59.3269 27.6261 58.6695 30.0632 56.6272 31.6374C55.0182 32.8781 52.8201 33.3943 50.0724 33.1887L54.0648 31.2047C54.2098 31.134 54.3394 31.0355 54.4459 30.9148C54.5525 30.7941 54.634 30.6536 54.6856 30.5015C54.7373 30.3494 54.7582 30.1886 54.747 30.0284C54.7359 29.8682 54.6929 29.7118 54.6207 29.5682C54.5484 29.4245 54.4483 29.2966 54.326 29.1916C54.2037 29.0866 54.0618 29.0068 53.9083 28.9566C53.7548 28.9064 53.5929 28.8869 53.4318 28.8993C53.2707 28.9116 53.1137 28.9555 52.9698 29.0284L48.52 31.2397C49.9944 28.6719 53.1597 25.3929 59.5382 26.2611ZM38.2801 34.8549L42.2723 36.8388C39.5248 37.0441 37.3267 36.5281 35.7177 35.2875C33.6747 33.7127 33.0177 31.2747 32.8065 29.9113C39.1852 29.0421 42.3504 32.3213 43.8247 34.89L39.3751 32.6787C39.2312 32.6058 39.0741 32.5619 38.9131 32.5496C38.752 32.5372 38.59 32.5567 38.4366 32.6069C38.2831 32.6571 38.1411 32.7369 38.0189 32.8419C37.8966 32.9469 37.7965 33.0748 37.7242 33.2185C37.6519 33.3621 37.609 33.5185 37.5978 33.6787C37.5867 33.8389 37.6076 33.9997 37.6592 34.1518C37.7109 34.3039 37.7924 34.4444 37.899 34.5651C38.0055 34.6858 38.1351 34.7843 38.2801 34.855V34.8549ZM38.6899 15.8842C37.993 15.1645 37.6038 14.2044 37.6038 13.2056C37.6038 12.2068 37.993 11.2468 38.6899 10.527C39.0248 10.1812 39.4265 9.90604 39.871 9.71811C40.3154 9.53017 40.7934 9.43331 41.2764 9.43331C41.7594 9.43331 42.2374 9.53017 42.6819 9.71811C43.1263 9.90604 43.528 10.1812 43.8629 10.527L45.2967 11.987C45.4108 12.1032 45.547 12.1955 45.6975 12.2585C45.848 12.3216 46.0096 12.354 46.1729 12.354C46.3362 12.354 46.4978 12.3216 46.6483 12.2585C46.7988 12.1955 46.935 12.1032 47.0491 11.987L48.483 10.5261C48.8179 10.1804 49.2196 9.90543 49.6639 9.7176C50.1082 9.52976 50.5861 9.43295 51.069 9.43295C51.5519 9.43295 52.0297 9.52976 52.4741 9.7176C52.9184 9.90543 53.3201 10.1804 53.655 10.5261C54.3518 11.2458 54.741 12.2058 54.741 13.2046C54.741 14.2034 54.3518 15.1634 53.655 15.8831L47.3966 22.2606V16.7334C47.3966 16.4107 47.2676 16.1013 47.038 15.8731C46.8085 15.6449 46.4971 15.5167 46.1724 15.5167C45.8478 15.5167 45.5364 15.6449 45.3068 15.8731C45.0773 16.1013 44.9483 16.4107 44.9483 16.7334V22.2606L38.6899 15.8842ZM44.9483 45.9668V48.3667C44.9483 48.6894 45.0773 48.9988 45.3068 49.227C45.5364 49.4552 45.8478 49.5834 46.1724 49.5834C46.4971 49.5834 46.8085 49.4552 47.038 49.227C47.2676 48.9988 47.3966 48.6894 47.3966 48.3667V45.9658C54.4507 46.3105 60.1429 49.5491 63.2559 51.77L60.1463 56.9211C58.3101 57.1147 56.7952 58.024 55.6973 58.9438C55.3635 57.9877 54.7385 57.1585 53.9092 56.5713C53.0799 55.9841 52.0872 55.668 51.069 55.6667H40.7097C39.7162 54.3466 36.8566 51.5148 30.3515 50.9152C33.6366 48.7925 38.776 46.2693 44.9483 45.9668ZM64.7937 66.9645L44.7413 77.5156L15.7702 72.7164C15.7037 72.7055 15.6364 72.7 15.569 72.7H9.44828V60.5334H15.569C15.8259 60.5333 16.0763 60.453 16.2847 60.3037C16.4931 60.1544 16.649 59.9437 16.7302 59.7015C16.7519 59.6361 19.0015 53.2334 27.8104 53.2334C36.5043 53.2334 38.8175 57.1748 38.9597 57.4333C39.0577 57.6372 39.2129 57.8086 39.4067 57.9269C39.6004 58.0452 39.8244 58.1053 40.0517 58.1H51.069C51.7181 58.1008 52.3404 58.3574 52.7993 58.8136C53.2583 59.2697 53.5165 59.8882 53.5173 60.5334V61.75C53.5165 62.3951 53.2583 63.0136 52.7993 63.4698C52.3404 63.926 51.7181 64.1826 51.069 64.1833H36.3793C36.0547 64.1833 35.7433 64.3115 35.5137 64.5397C35.2842 64.7679 35.1552 65.0773 35.1552 65.4C35.1552 65.7227 35.2842 66.0322 35.5137 66.2603C35.7433 66.4885 36.0547 66.6167 36.3793 66.6167H51.069C52.2924 66.6151 53.471 66.1589 54.3732 65.3378C55.2755 64.5167 55.8363 63.39 55.9455 62.1789C56.5256 61.4459 58.4201 59.3167 60.8621 59.3167C61.0735 59.3167 61.2813 59.2623 61.4652 59.1588C61.6492 59.0553 61.803 58.9062 61.9118 58.726L71.0622 43.568C71.4649 42.8948 72.0759 42.369 72.804 42.0693C73.5321 41.7696 74.3382 41.7119 75.1019 41.905L75.1074 41.9064L64.7937 66.9645Z" fill="#0F05C1"/>
</svg>
